<svg id="icon-logo-footer" width="223" height="72" viewBox="0 0 223 72" fill="none" xmlns="http://www.w3.org/2000/svg">
<path d="M77.9355 33.3369C77.9355 32.6126 77.7484 32.0674 77.374 31.7012C77.0078 31.3268 76.3364 30.9403 75.3599 30.5415C73.5776 29.866 72.2959 29.0767 71.5146 28.1733C70.7334 27.2619 70.3428 26.1877 70.3428 24.9507C70.3428 23.4533 70.8717 22.2529 71.9297 21.3496C72.9958 20.4382 74.3467 19.9824 75.9824 19.9824C77.0729 19.9824 78.0454 20.2144 78.8999 20.6782C79.7544 21.134 80.4095 21.7809 80.8652 22.6191C81.3291 23.4574 81.561 24.4095 81.561 25.4756H77.9844C77.9844 24.6455 77.8053 24.0148 77.4473 23.5835C77.0973 23.144 76.5887 22.9243 75.9214 22.9243C75.2948 22.9243 74.8065 23.1115 74.4565 23.4858C74.1066 23.8521 73.9316 24.3485 73.9316 24.9751C73.9316 25.4634 74.127 25.9069 74.5176 26.3057C74.9082 26.6963 75.5999 27.1032 76.5928 27.5264C78.3262 28.153 79.5835 28.922 80.3647 29.8335C81.1541 30.745 81.5488 31.9046 81.5488 33.3125C81.5488 34.8587 81.0565 36.0672 80.0718 36.938C79.0871 37.8088 77.7484 38.2441 76.0557 38.2441C74.9082 38.2441 73.8625 38.0081 72.9185 37.5361C71.9744 37.0641 71.2339 36.3887 70.6968 35.5098C70.1678 34.6309 69.9033 33.5933 69.9033 32.397H73.5044C73.5044 33.4224 73.7038 34.167 74.1025 34.6309C74.5013 35.0947 75.1523 35.3267 76.0557 35.3267C77.3089 35.3267 77.9355 34.6634 77.9355 33.3369ZM89.0928 38.2441C87.3187 38.2441 85.9352 37.7152 84.9424 36.6572C83.9495 35.5993 83.4531 34.0856 83.4531 32.1162V31.0664C83.4531 28.9831 83.9089 27.3758 84.8203 26.2446C85.7318 25.1134 87.0379 24.5479 88.7388 24.5479C90.3989 24.5479 91.6481 25.0809 92.4863 26.147C93.3245 27.2049 93.7518 28.7756 93.7681 30.8589V32.5557H86.8955C86.9443 33.5322 87.16 34.2484 87.5425 34.7041C87.925 35.1517 88.515 35.3755 89.3125 35.3755C90.4681 35.3755 91.4325 34.9808 92.2056 34.1914L93.5605 36.2788C93.1374 36.8647 92.5229 37.3408 91.7173 37.707C90.9116 38.0651 90.0368 38.2441 89.0928 38.2441ZM86.9199 30.1387H90.3745V29.8213C90.3582 29.0319 90.228 28.4338 89.9839 28.0269C89.7397 27.62 89.3166 27.4165 88.7144 27.4165C88.1121 27.4165 87.6727 27.6322 87.396 28.0635C87.1274 28.4948 86.9688 29.1865 86.9199 30.1387ZM102.24 28.1245L101.092 28.0269C100.148 28.0269 99.5094 28.4419 99.1758 29.272V38H95.709V24.792H98.9683L99.0659 26.2202C99.6112 25.1053 100.364 24.5479 101.324 24.5479C101.715 24.5479 102.032 24.6007 102.276 24.7065L102.24 28.1245ZM108.575 33.1172L110.248 24.792H113.849L110.223 38H106.927L103.29 24.792H106.903L108.575 33.1172ZM119.098 38H115.631V24.792H119.098V38ZM115.472 21.374C115.472 20.8369 115.643 20.3975 115.985 20.0557C116.327 19.7139 116.782 19.543 117.352 19.543C117.922 19.543 118.377 19.7139 118.719 20.0557C119.061 20.3975 119.232 20.8369 119.232 21.374C119.232 21.903 119.061 22.3424 118.719 22.6924C118.386 23.0423 117.93 23.2173 117.352 23.2173C116.774 23.2173 116.314 23.0423 115.973 22.6924C115.639 22.3424 115.472 21.903 115.472 21.374ZM126.544 35.3755C127.545 35.3755 128.054 34.7244 128.07 33.4224H131.317C131.301 34.8628 130.857 36.0265 129.986 36.9136C129.116 37.8006 127.993 38.2441 126.617 38.2441C124.916 38.2441 123.618 37.7152 122.723 36.6572C121.828 35.5993 121.372 34.0409 121.356 31.9819V30.9321C121.356 28.8569 121.795 27.2741 122.674 26.1836C123.561 25.0931 124.868 24.5479 126.593 24.5479C128.049 24.5479 129.197 24.9995 130.035 25.9028C130.873 26.798 131.301 28.0716 131.317 29.7236H128.07C128.062 28.9831 127.94 28.4134 127.704 28.0146C127.468 27.6159 127.077 27.4165 126.532 27.4165C125.93 27.4165 125.498 27.6322 125.238 28.0635C124.977 28.4867 124.839 29.3127 124.823 30.5415V31.8843C124.823 32.9585 124.876 33.7113 124.981 34.1426C125.087 34.5658 125.262 34.8791 125.506 35.0825C125.75 35.2778 126.096 35.3755 126.544 35.3755ZM138.604 38.2441C136.83 38.2441 135.447 37.7152 134.454 36.6572C133.461 35.5993 132.965 34.0856 132.965 32.1162V31.0664C132.965 28.9831 133.421 27.3758 134.332 26.2446C135.243 25.1134 136.55 24.5479 138.25 24.5479C139.911 24.5479 141.16 25.0809 141.998 26.147C142.836 27.2049 143.264 28.7756 143.28 30.8589V32.5557H136.407C136.456 33.5322 136.672 34.2484 137.054 34.7041C137.437 35.1517 138.027 35.3755 138.824 35.3755C139.98 35.3755 140.944 34.9808 141.717 34.1914L143.072 36.2788C142.649 36.8647 142.035 37.3408 141.229 37.707C140.423 38.0651 139.549 38.2441 138.604 38.2441ZM136.432 30.1387H139.886V29.8213C139.87 29.0319 139.74 28.4338 139.496 28.0269C139.251 27.62 138.828 27.4165 138.226 27.4165C137.624 27.4165 137.184 27.6322 136.908 28.0635C136.639 28.4948 136.48 29.1865 136.432 30.1387ZM151.166 38V20.2266H155.865C157.94 20.2266 159.592 20.8857 160.821 22.2041C162.058 23.5225 162.689 25.3291 162.713 27.624V30.5049C162.713 32.8405 162.095 34.6756 160.858 36.0103C159.629 37.3368 157.932 38 155.768 38H151.166ZM154.754 23.2173V35.0215H155.829C157.025 35.0215 157.867 34.7082 158.355 34.0815C158.844 33.4468 159.1 32.3563 159.125 30.8101V27.7217C159.125 26.0615 158.893 24.9059 158.429 24.2549C157.965 23.5957 157.175 23.2498 156.061 23.2173H154.754ZM170.465 38.2441C168.691 38.2441 167.307 37.7152 166.314 36.6572C165.322 35.5993 164.825 34.0856 164.825 32.1162V31.0664C164.825 28.9831 165.281 27.3758 166.192 26.2446C167.104 25.1134 168.41 24.5479 170.111 24.5479C171.771 24.5479 173.02 25.0809 173.858 26.147C174.697 27.2049 175.124 28.7756 175.14 30.8589V32.5557H168.268C168.316 33.5322 168.532 34.2484 168.915 34.7041C169.297 35.1517 169.887 35.3755 170.685 35.3755C171.84 35.3755 172.805 34.9808 173.578 34.1914L174.933 36.2788C174.509 36.8647 173.895 37.3408 173.089 37.707C172.284 38.0651 171.409 38.2441 170.465 38.2441ZM168.292 30.1387H171.747V29.8213C171.73 29.0319 171.6 28.4338 171.356 28.0269C171.112 27.62 170.689 27.4165 170.086 27.4165C169.484 27.4165 169.045 27.6322 168.768 28.0635C168.5 28.4948 168.341 29.1865 168.292 30.1387ZM181.256 33.1172L182.928 24.792H186.529L182.904 38H179.608L175.97 24.792H179.583L181.256 33.1172ZM191.778 38H188.312V24.792H191.778V38ZM188.153 21.374C188.153 20.8369 188.324 20.3975 188.666 20.0557C189.007 19.7139 189.463 19.543 190.033 19.543C190.602 19.543 191.058 19.7139 191.4 20.0557C191.742 20.3975 191.913 20.8369 191.913 21.374C191.913 21.903 191.742 22.3424 191.4 22.6924C191.066 23.0423 190.611 23.2173 190.033 23.2173C189.455 23.2173 188.995 23.0423 188.653 22.6924C188.32 22.3424 188.153 21.903 188.153 21.374ZM199.225 35.3755C200.226 35.3755 200.734 34.7244 200.75 33.4224H203.998C203.981 34.8628 203.538 36.0265 202.667 36.9136C201.796 37.8006 200.673 38.2441 199.298 38.2441C197.597 38.2441 196.299 37.7152 195.404 36.6572C194.509 35.5993 194.053 34.0409 194.037 31.9819V30.9321C194.037 28.8569 194.476 27.2741 195.355 26.1836C196.242 25.0931 197.548 24.5479 199.273 24.5479C200.73 24.5479 201.878 24.9995 202.716 25.9028C203.554 26.798 203.981 28.0716 203.998 29.7236H200.75C200.742 28.9831 200.62 28.4134 200.384 28.0146C200.148 27.6159 199.758 27.4165 199.212 27.4165C198.61 27.4165 198.179 27.6322 197.918 28.0635C197.658 28.4867 197.52 29.3127 197.503 30.5415V31.8843C197.503 32.9585 197.556 33.7113 197.662 34.1426C197.768 34.5658 197.943 34.8791 198.187 35.0825C198.431 35.2778 198.777 35.3755 199.225 35.3755ZM211.285 38.2441C209.511 38.2441 208.128 37.7152 207.135 36.6572C206.142 35.5993 205.646 34.0856 205.646 32.1162V31.0664C205.646 28.9831 206.101 27.3758 207.013 26.2446C207.924 25.1134 209.23 24.5479 210.931 24.5479C212.591 24.5479 213.84 25.0809 214.679 26.147C215.517 27.2049 215.944 28.7756 215.96 30.8589V32.5557H209.088C209.137 33.5322 209.352 34.2484 209.735 34.7041C210.117 35.1517 210.707 35.3755 211.505 35.3755C212.66 35.3755 213.625 34.9808 214.398 34.1914L215.753 36.2788C215.33 36.8647 214.715 37.3408 213.91 37.707C213.104 38.0651 212.229 38.2441 211.285 38.2441ZM209.112 30.1387H212.567V29.8213C212.551 29.0319 212.42 28.4338 212.176 28.0269C211.932 27.62 211.509 27.4165 210.907 27.4165C210.305 27.4165 209.865 27.6322 209.588 28.0635C209.32 28.4948 209.161 29.1865 209.112 30.1387Z" fill="#203C42"/>
<path d="M71.9473 53.9609L73.2363 49.6602H74.7539L72.2344 56.9609C71.8477 58.0273 71.1914 58.5605 70.2656 58.5605C70.0586 58.5605 69.8301 58.5254 69.5801 58.4551V57.3535L69.8496 57.3711C70.209 57.3711 70.4785 57.3047 70.6582 57.1719C70.8418 57.043 70.9863 56.8242 71.0918 56.5156L71.2969 55.9707L69.0703 49.6602H70.6055L71.9473 53.9609ZM79.3418 54.248L81.2168 49.6602H82.998V56H81.5742V51.8047L79.8281 56H78.8613L77.1094 51.7812V56H75.6855V49.6602H77.4785L79.3418 54.248ZM89.9707 56H88.5469V53.4395H86.0801V56H84.6562V49.6602H86.0801V52.3027H88.5469V49.6602H89.9707V56ZM93.0234 51.6758H94.418C94.9375 51.6758 95.3906 51.7656 95.7773 51.9453C96.1641 52.125 96.457 52.377 96.6562 52.7012C96.8594 53.0254 96.9609 53.4023 96.9609 53.832C96.9609 54.4844 96.7305 55.0078 96.2695 55.4023C95.8086 55.7969 95.1953 55.9961 94.4297 56H91.5996V49.6602H93.0234V51.6758ZM99.4395 56H98.0156V49.6602H99.4395V56ZM93.0234 52.8184V54.8633H94.4121C94.7598 54.8633 95.0332 54.7773 95.2324 54.6055C95.4355 54.4297 95.5371 54.1816 95.5371 53.8613C95.5371 53.541 95.4375 53.2891 95.2383 53.1055C95.043 52.918 94.7773 52.8223 94.4414 52.8184H93.0234ZM103.939 56.1172C103.037 56.1172 102.305 55.834 101.742 55.2676C101.184 54.6973 100.904 53.9395 100.904 52.9941V52.8184C100.904 52.1855 101.025 51.6211 101.268 51.125C101.514 50.625 101.857 50.2363 102.299 49.959C102.74 49.6816 103.232 49.543 103.775 49.543C104.639 49.543 105.305 49.8184 105.773 50.3691C106.246 50.9199 106.482 51.6992 106.482 52.707V53.2812H102.34C102.383 53.8047 102.557 54.2188 102.861 54.5234C103.17 54.8281 103.557 54.9805 104.021 54.9805C104.674 54.9805 105.205 54.7168 105.615 54.1895L106.383 54.9219C106.129 55.3008 105.789 55.5957 105.363 55.8066C104.941 56.0137 104.467 56.1172 103.939 56.1172ZM103.77 50.6855C103.379 50.6855 103.062 50.8223 102.82 51.0957C102.582 51.3691 102.43 51.75 102.363 52.2383H105.076V52.1328C105.045 51.6562 104.918 51.2969 104.695 51.0547C104.473 50.8086 104.164 50.6855 103.77 50.6855ZM115.57 50.791H113.514V56H112.09V50.791H110.057V49.6602H115.57V50.791ZM118.939 56.1172C118.037 56.1172 117.305 55.834 116.742 55.2676C116.184 54.6973 115.904 53.9395 115.904 52.9941V52.8184C115.904 52.1855 116.025 51.6211 116.268 51.125C116.514 50.625 116.857 50.2363 117.299 49.959C117.74 49.6816 118.232 49.543 118.775 49.543C119.639 49.543 120.305 49.8184 120.773 50.3691C121.246 50.9199 121.482 51.6992 121.482 52.707V53.2812H117.34C117.383 53.8047 117.557 54.2188 117.861 54.5234C118.17 54.8281 118.557 54.9805 119.021 54.9805C119.674 54.9805 120.205 54.7168 120.615 54.1895L121.383 54.9219C121.129 55.3008 120.789 55.5957 120.363 55.8066C119.941 56.0137 119.467 56.1172 118.939 56.1172ZM118.77 50.6855C118.379 50.6855 118.062 50.8223 117.82 51.0957C117.582 51.3691 117.43 51.75 117.363 52.2383H120.076V52.1328C120.045 51.6562 119.918 51.2969 119.695 51.0547C119.473 50.8086 119.164 50.6855 118.77 50.6855ZM124.869 51.7461L126.076 49.6602H127.658L125.719 52.7832L127.723 56H126.152L124.887 53.832L123.627 56H122.045L124.049 52.7832L122.115 49.6602H123.686L124.869 51.7461ZM133.998 56H132.574V53.4395H130.107V56H128.684V49.6602H130.107V52.3027H132.574V49.6602H133.998V56ZM135.252 52.7715C135.252 52.1504 135.375 51.5918 135.621 51.0957C135.867 50.5957 136.213 50.2129 136.658 49.9473C137.104 49.6777 137.615 49.543 138.193 49.543C139.049 49.543 139.742 49.8184 140.273 50.3691C140.809 50.9199 141.098 51.6504 141.141 52.5605L141.146 52.8945C141.146 53.5195 141.025 54.0781 140.783 54.5703C140.545 55.0625 140.201 55.4434 139.752 55.7129C139.307 55.9824 138.791 56.1172 138.205 56.1172C137.311 56.1172 136.594 55.8203 136.055 55.2266C135.52 54.6289 135.252 53.834 135.252 52.8418V52.7715ZM136.676 52.8945C136.676 53.5469 136.811 54.0586 137.08 54.4297C137.35 54.7969 137.725 54.9805 138.205 54.9805C138.686 54.9805 139.059 54.793 139.324 54.418C139.594 54.043 139.729 53.4941 139.729 52.7715C139.729 52.1309 139.59 51.623 139.312 51.248C139.039 50.873 138.666 50.6855 138.193 50.6855C137.729 50.6855 137.359 50.8711 137.086 51.2422C136.812 51.6094 136.676 52.1602 136.676 52.8945ZM147.645 49.6602V56H146.221V50.8086H144.428L144.311 53.0176C144.236 54.0801 144.031 54.8438 143.695 55.3086C143.363 55.7695 142.854 56 142.166 56H141.727L141.721 54.8164L142.014 54.7871C142.326 54.7441 142.553 54.5547 142.693 54.2188C142.838 53.8789 142.93 53.2617 142.969 52.3672L143.086 49.6602H147.645ZM148.893 52.7715C148.893 52.1504 149.016 51.5918 149.262 51.0957C149.508 50.5957 149.854 50.2129 150.299 49.9473C150.744 49.6777 151.256 49.543 151.834 49.543C152.689 49.543 153.383 49.8184 153.914 50.3691C154.449 50.9199 154.738 51.6504 154.781 52.5605L154.787 52.8945C154.787 53.5195 154.666 54.0781 154.424 54.5703C154.186 55.0625 153.842 55.4434 153.393 55.7129C152.947 55.9824 152.432 56.1172 151.846 56.1172C150.951 56.1172 150.234 55.8203 149.695 55.2266C149.16 54.6289 148.893 53.834 148.893 52.8418V52.7715ZM150.316 52.8945C150.316 53.5469 150.451 54.0586 150.721 54.4297C150.99 54.7969 151.365 54.9805 151.846 54.9805C152.326 54.9805 152.699 54.793 152.965 54.418C153.234 54.043 153.369 53.4941 153.369 52.7715C153.369 52.1309 153.23 51.623 152.953 51.248C152.68 50.873 152.307 50.6855 151.834 50.6855C151.369 50.6855 151 50.8711 150.727 51.2422C150.453 51.6094 150.316 52.1602 150.316 52.8945ZM160.213 50.8086H157.459V56H156.041V49.6602H160.213V50.8086ZM164.977 49.6602H166.395V56H164.977V51.7695L162.492 56H161.074V49.6602H162.492V53.8906L164.977 49.6602ZM171.867 49.6602H173.285V56H171.867V51.7695L169.383 56H167.965V49.6602H169.383V53.8906L171.867 49.6602Z" fill="#788891"/>
<path d="M33.0668 22.8665C34.1952 22.8665 35.1485 23.5936 35.5073 24.5998H44.4929C44.8517 23.5936 45.805 22.8665 46.9334 22.8665C48.3669 22.8665 49.5334 24.033 49.5334 25.4664C49.5334 26.8999 48.3669 28.0664 46.9334 28.0664C45.805 28.0664 44.8517 27.3392 44.4929 26.3331H35.5064C35.1476 27.3392 34.1943 28.0664 33.0659 28.0664C31.6324 28.0664 30.4659 26.8999 30.4659 25.4664C30.4659 24.033 31.6333 22.8665 33.0668 22.8665ZM46.9334 26.3331C47.411 26.3331 47.8001 25.9448 47.8001 25.4664C47.8001 24.988 47.411 24.5998 46.9334 24.5998C46.4559 24.5998 46.0668 24.988 46.0668 25.4664C46.0668 25.9448 46.4559 26.3331 46.9334 26.3331ZM33.0668 26.3331C33.5443 26.3331 33.9334 25.9448 33.9334 25.4664C33.9334 24.988 33.5443 24.5998 33.0668 24.5998C32.5892 24.5998 32.2001 24.988 32.2001 25.4664C32.2001 25.9448 32.5892 26.3331 33.0668 26.3331Z" fill="#00B2FF"/>
<path d="M26.1333 28.2259V22.8665C26.1333 22.636 26.2243 22.4158 26.3872 22.2538L29.8539 18.7872C30.0159 18.6242 30.2369 18.5332 30.4666 18.5332H33.2261C33.5849 17.527 34.5382 16.7999 35.6666 16.7999C37.1001 16.7999 38.2666 17.9664 38.2666 19.3999C38.2666 20.8333 37.1001 21.9998 35.6666 21.9998C34.5382 21.9998 33.5849 21.2727 33.2261 20.2665H30.8254L27.8666 23.2253V28.2259C28.8728 28.5847 29.5999 29.538 29.5999 30.6664C29.5999 32.0998 28.4334 33.2663 26.9999 33.2663C25.5665 33.2663 24.3999 32.0998 24.3999 30.6664C24.3999 29.538 25.1271 28.5847 26.1333 28.2259ZM35.6666 20.2665C36.1441 20.2665 36.5333 19.8783 36.5333 19.3999C36.5333 18.9215 36.1441 18.5332 35.6666 18.5332C35.1891 18.5332 34.7999 18.9215 34.7999 19.3999C34.7999 19.8783 35.1891 20.2665 35.6666 20.2665ZM26.9999 31.533C27.4775 31.533 27.8666 31.1448 27.8666 30.6664C27.8666 30.188 27.4775 29.7997 26.9999 29.7997C26.5224 29.7997 26.1333 30.188 26.1333 30.6664C26.1333 31.1448 26.5224 31.533 26.9999 31.533Z" fill="#00B2FF"/>
<path d="M10.5333 31.533C10.9337 31.533 11.3081 31.6309 11.647 31.7938L13.1333 30.3075V21.9998C13.1333 21.7693 13.2243 21.5491 13.3873 21.3871L22.0609 12.7136C21.8979 12.3747 21.8 12.0003 21.8 11.6C21.8 10.1665 22.9665 9 24.4 9C25.8335 9 27 10.1665 27 11.6C27 13.0334 25.8335 14.1999 24.4 14.1999C23.9996 14.1999 23.6252 14.102 23.2863 13.9391L14.8667 22.3586V30.6663C14.8667 30.8968 14.7757 31.117 14.6127 31.279L12.8725 33.0193C13.0354 33.3581 13.1333 33.7325 13.1333 34.1329C13.1333 35.5664 11.9668 36.7329 10.5333 36.7329C9.09986 36.7329 7.93333 35.5664 7.93333 34.1329C7.93333 32.6995 9.09986 31.533 10.5333 31.533ZM24.4 12.4666C24.8775 12.4666 25.2667 12.0783 25.2667 11.6C25.2667 11.1216 24.8775 10.7333 24.4 10.7333C23.9225 10.7333 23.5333 11.1216 23.5333 11.6C23.5333 12.0783 23.9225 12.4666 24.4 12.4666ZM10.5333 34.9996C11.0109 34.9996 11.4 34.6113 11.4 34.1329C11.4 33.6545 11.0109 33.2663 10.5333 33.2663C10.0558 33.2663 9.66667 33.6545 9.66667 34.1329C9.66667 34.6113 10.0558 34.9996 10.5333 34.9996Z" fill="#00B2FF"/>
<path d="M2.73328 21.2926V17.6665C2.73328 17.436 2.82428 17.2159 2.98722 17.0538L9.05388 10.9872C9.21595 10.8243 9.43695 10.7333 9.66662 10.7333H14.1594C14.5182 9.72712 15.4716 9 16.6 9C18.0334 9 19.2 10.1665 19.2 11.6C19.2 13.0334 18.0334 14.1999 16.6 14.1999C15.4716 14.1999 14.5182 13.4728 14.1594 12.4666H10.0254L4.46662 18.0253V21.2926C5.47282 21.6514 6.19995 22.6047 6.19995 23.7331C6.19995 25.1665 5.03342 26.333 3.59995 26.333C2.16648 26.333 0.99995 25.1665 0.99995 23.7331C0.99995 22.6047 1.72709 21.6514 2.73328 21.2926ZM16.6 12.4666C17.0775 12.4666 17.4666 12.0783 17.4666 11.6C17.4666 11.1216 17.0775 10.7333 16.6 10.7333C16.1224 10.7333 15.7333 11.1216 15.7333 11.6C15.7333 12.0783 16.1224 12.4666 16.6 12.4666ZM3.59995 24.5997C4.07748 24.5997 4.46662 24.2115 4.46662 23.7331C4.46662 23.2547 4.07748 22.8664 3.59995 22.8664C3.12242 22.8664 2.73328 23.2547 2.73328 23.7331C2.73328 24.2115 3.12242 24.5997 3.59995 24.5997Z" fill="#00B2FF"/>
<path d="M14.8658 55.9595V43.5066C13.8604 43.1478 13.1333 42.1945 13.1333 41.0661C13.1333 39.6327 14.2998 38.4661 15.7333 38.4661C16.8617 38.4661 17.815 39.1933 18.1738 40.1995H27.1594C27.5182 39.1933 28.4716 38.4661 29.6 38.4661C30.7284 38.4661 31.6817 39.1933 32.0405 40.1995H37.0412L40.2608 36.9798C40.0979 36.641 40 36.2666 40 35.8662C40 34.4327 41.1665 33.2662 42.6 33.2662C44.0334 33.2662 45.2 34.4327 45.2 35.8662C45.2 37.2996 44.0334 38.4661 42.6 38.4661C42.1996 38.4661 41.8252 38.3682 41.4863 38.2053L38.0127 41.6788C37.8506 41.8418 37.6296 41.9328 37.4 41.9328H32.0405C31.6817 42.9389 30.7284 43.6661 29.6 43.6661C28.4716 43.6661 27.5182 42.9389 27.1594 41.9328H18.173C17.9112 42.6668 17.3332 43.2449 16.5991 43.5066V55.9595C17.6053 56.3183 18.3324 57.2716 18.3324 58.4C18.3324 59.8335 17.1659 61 15.7324 61C14.299 61 13.1324 59.8335 13.1324 58.4C13.1324 57.2716 13.8596 56.3183 14.8658 55.9595ZM42.6 36.7328C43.0775 36.7328 43.4666 36.3446 43.4666 35.8662C43.4666 35.3878 43.0775 34.9995 42.6 34.9995C42.1224 34.9995 41.7333 35.3878 41.7333 35.8662C41.7333 36.3446 42.1224 36.7328 42.6 36.7328ZM29.6 41.9328C30.0775 41.9328 30.4666 41.5445 30.4666 41.0661C30.4666 40.5877 30.0775 40.1995 29.6 40.1995C29.1224 40.1995 28.7333 40.5877 28.7333 41.0661C28.7333 41.5445 29.1224 41.9328 29.6 41.9328ZM15.7333 59.2658C16.2108 59.2658 16.6 58.8775 16.6 58.3991C16.6 57.9208 16.2108 57.5325 15.7333 57.5325C15.2558 57.5325 14.8666 57.9208 14.8666 58.3991C14.8666 58.8775 15.2558 59.2658 15.7333 59.2658ZM15.7333 41.9328C16.2108 41.9328 16.6 41.5445 16.6 41.0661C16.6 40.5877 16.2108 40.1995 15.7333 40.1995C15.2558 40.1995 14.8666 40.5877 14.8666 41.0661C14.8666 41.5445 15.2558 41.9328 15.7333 41.9328Z" fill="#00B2FF"/>
<path d="M19.2 26.4925V23.7331C19.2 23.5026 19.291 23.2824 19.4539 23.1204L29.8609 12.7136C29.6979 12.3747 29.6 12.0003 29.6 11.6C29.6 10.1665 30.7665 9 32.2 9C33.3284 9 34.2817 9.72712 34.6405 10.7333H38.2667C38.7451 10.7333 39.1333 11.1207 39.1333 11.6V13.8411L42.353 17.0607C42.6919 16.8978 43.0663 16.7999 43.4667 16.7999C44.9001 16.7999 46.0667 17.9664 46.0667 19.3998C46.0667 20.8333 44.9001 21.9998 43.4667 21.9998C42.0332 21.9998 40.8667 20.8333 40.8667 19.3998C40.8667 18.9994 40.9646 18.625 41.1275 18.2862L37.6539 14.8126C37.491 14.6506 37.4 14.4304 37.4 14.1999V12.4666H34.6405C34.2817 13.4728 33.3284 14.1999 32.2 14.1999C31.7996 14.1999 31.4252 14.102 31.0863 13.9391L20.9333 24.0919V26.4925C21.9395 26.8513 22.6667 27.8046 22.6667 28.933C22.6667 30.3664 21.5001 31.533 20.0667 31.533C18.6332 31.533 17.4667 30.3664 17.4667 28.933C17.4667 27.8046 18.1938 26.8513 19.2 26.4925ZM43.4667 20.2665C43.9442 20.2665 44.3333 19.8782 44.3333 19.3998C44.3333 18.9214 43.9442 18.5332 43.4667 18.5332C42.9891 18.5332 42.6 18.9214 42.6 19.3998C42.6 19.8782 42.9891 20.2665 43.4667 20.2665ZM32.2 12.4666C32.6775 12.4666 33.0667 12.0783 33.0667 11.6C33.0667 11.1216 32.6775 10.7333 32.2 10.7333C31.7225 10.7333 31.3333 11.1216 31.3333 11.6C31.3333 12.0783 31.7225 12.4666 32.2 12.4666ZM20.0667 29.7997C20.5442 29.7997 20.9333 29.4114 20.9333 28.933C20.9333 28.4546 20.5442 28.0663 20.0667 28.0663C19.5891 28.0663 19.2 28.4546 19.2 28.933C19.2 29.4114 19.5891 29.7997 20.0667 29.7997Z" fill="#00B2FF"/>
<path d="M21.8 33.2663C22.9284 33.2663 23.8817 33.9934 24.2405 34.9996H34.4412L39.3873 30.0536C39.5493 29.8906 39.7703 29.7997 40 29.7997H49.1745L51.2667 27.7076V20.6253L44.5803 13.9391C44.2415 14.102 43.8671 14.1999 43.4667 14.1999C42.0332 14.1999 40.8667 13.0334 40.8667 11.6C40.8667 10.1665 42.0332 9 43.4667 9C44.9001 9 46.0667 10.1665 46.0667 11.6C46.0667 12.0003 45.9687 12.3747 45.8058 12.7136L52.7461 19.6538C52.909 19.8158 53 20.0359 53 20.2665V28.0663C53 28.2969 52.909 28.517 52.7461 28.6791L50.1461 31.279C49.984 31.442 49.763 31.533 49.5333 31.533H40.3588L35.4127 36.4789C35.2507 36.6419 35.0297 36.7329 34.8 36.7329H24.2405C23.8817 37.7391 22.9284 38.4662 21.8 38.4662C20.3665 38.4662 19.2 37.2997 19.2 35.8662C19.2 34.4328 20.3665 33.2663 21.8 33.2663ZM43.4667 10.7333C42.9891 10.7333 42.6 11.1216 42.6 11.6C42.6 12.0783 42.9891 12.4666 43.4667 12.4666C43.9442 12.4666 44.3333 12.0783 44.3333 11.6C44.3333 11.1216 43.9442 10.7333 43.4667 10.7333ZM21.8 36.7329C22.2775 36.7329 22.6667 36.3446 22.6667 35.8662C22.6667 35.3878 22.2775 34.9996 21.8 34.9996C21.3225 34.9996 20.9333 35.3878 20.9333 35.8662C20.9333 36.3446 21.3225 36.7329 21.8 36.7329Z" fill="#00B2FF"/>
<path d="M3.59997 29.7997C4.00037 29.7997 4.37477 29.8976 4.71363 30.0606L7.9333 26.841V21.8404C6.9271 21.4816 6.19997 20.5283 6.19997 19.3999C6.19997 17.9664 7.3665 16.7999 8.79997 16.7999C10.2334 16.7999 11.4 17.9664 11.4 19.3999C11.4 20.5283 10.6728 21.4816 9.66663 21.8404V27.1998C9.66663 27.4303 9.57563 27.6504 9.4127 27.8125L5.9391 31.286C6.10204 31.6249 6.19997 31.9993 6.19997 32.3997C6.19997 33.528 5.47283 34.4814 4.46663 34.8402V35.5075L11.146 42.1868C11.309 42.3488 11.4 42.569 11.4 42.7995V43.8256C12.4062 44.1844 13.1333 45.1377 13.1333 46.2661C13.1333 47.3945 12.4062 48.3478 11.4 48.7066V50.7597C12.4062 51.1185 13.1333 52.0718 13.1333 53.2002C13.1333 54.6336 11.9668 55.8001 10.5333 55.8001C9.09983 55.8001 7.9333 54.6336 7.9333 53.2002C7.9333 52.0718 8.66043 51.1185 9.66663 50.7597V48.7066C8.66043 48.3478 7.9333 47.3945 7.9333 46.2661C7.9333 45.1377 8.66043 44.1844 9.66663 43.8256V43.1583L2.98723 36.479C2.8243 36.3169 2.7333 36.0968 2.7333 35.8663V34.8402C1.7271 34.4814 0.999968 33.528 0.999968 32.3997C0.999968 30.9662 2.1665 29.7997 3.59997 29.7997ZM8.79997 20.2665C9.2775 20.2665 9.66663 19.8783 9.66663 19.3999C9.66663 18.9215 9.2775 18.5332 8.79997 18.5332C8.32243 18.5332 7.9333 18.9215 7.9333 19.3999C7.9333 19.8783 8.32243 20.2665 8.79997 20.2665ZM10.5333 54.066C11.0108 54.066 11.4 53.6777 11.4 53.1993C11.4 52.7209 11.0108 52.3327 10.5333 52.3327C10.0558 52.3327 9.66663 52.7209 9.66663 53.1993C9.66663 53.6777 10.0558 54.066 10.5333 54.066ZM10.5333 47.1328C11.0108 47.1328 11.4 46.7445 11.4 46.2661C11.4 45.7877 11.0108 45.3995 10.5333 45.3995C10.0558 45.3995 9.66663 45.7877 9.66663 46.2661C9.66663 46.7445 10.0558 47.1328 10.5333 47.1328ZM3.59997 33.2663C4.0775 33.2663 4.46663 32.8781 4.46663 32.3997C4.46663 31.9213 4.0775 31.533 3.59997 31.533C3.12243 31.533 2.7333 31.9213 2.7333 32.3997C2.7333 32.8781 3.12243 33.2663 3.59997 33.2663Z" fill="#00B2FF"/>
</svg>
