<svg id="icon-logo-footer" width="236" height="76" viewBox="0 0 236 76" fill="none" xmlns="http://www.w3.org/2000/svg">
<path d="M90.9355 37.3369C90.9355 36.6126 90.7484 36.0674 90.374 35.7012C90.0078 35.3268 89.3364 34.9403 88.3599 34.5415C86.5776 33.866 85.2959 33.0767 84.5146 32.1733C83.7334 31.2619 83.3428 30.1877 83.3428 28.9507C83.3428 27.4533 83.8717 26.2529 84.9297 25.3496C85.9958 24.4382 87.3467 23.9824 88.9824 23.9824C90.0729 23.9824 91.0454 24.2144 91.8999 24.6782C92.7544 25.134 93.4095 25.7809 93.8652 26.6191C94.3291 27.4574 94.561 28.4095 94.561 29.4756H90.9844C90.9844 28.6455 90.8053 28.0148 90.4473 27.5835C90.0973 27.144 89.5887 26.9243 88.9214 26.9243C88.2948 26.9243 87.8065 27.1115 87.4565 27.4858C87.1066 27.8521 86.9316 28.3485 86.9316 28.9751C86.9316 29.4634 87.127 29.9069 87.5176 30.3057C87.9082 30.6963 88.5999 31.1032 89.5928 31.5264C91.3262 32.153 92.5835 32.922 93.3647 33.8335C94.1541 34.745 94.5488 35.9046 94.5488 37.3125C94.5488 38.8587 94.0565 40.0672 93.0718 40.938C92.0871 41.8088 90.7484 42.2441 89.0557 42.2441C87.9082 42.2441 86.8625 42.0081 85.9185 41.5361C84.9744 41.0641 84.2339 40.3887 83.6968 39.5098C83.1678 38.6309 82.9033 37.5933 82.9033 36.397H86.5044C86.5044 37.4224 86.7038 38.167 87.1025 38.6309C87.5013 39.0947 88.1523 39.3267 89.0557 39.3267C90.3089 39.3267 90.9355 38.6634 90.9355 37.3369ZM102.093 42.2441C100.319 42.2441 98.9352 41.7152 97.9424 40.6572C96.9495 39.5993 96.4531 38.0856 96.4531 36.1162V35.0664C96.4531 32.9831 96.9089 31.3758 97.8203 30.2446C98.7318 29.1134 100.038 28.5479 101.739 28.5479C103.399 28.5479 104.648 29.0809 105.486 30.147C106.325 31.2049 106.752 32.7756 106.768 34.8589V36.5557H99.8955C99.9443 37.5322 100.16 38.2484 100.542 38.7041C100.925 39.1517 101.515 39.3755 102.312 39.3755C103.468 39.3755 104.432 38.9808 105.206 38.1914L106.561 40.2788C106.137 40.8647 105.523 41.3408 104.717 41.707C103.912 42.0651 103.037 42.2441 102.093 42.2441ZM99.9199 34.1387H103.375V33.8213C103.358 33.0319 103.228 32.4338 102.984 32.0269C102.74 31.62 102.317 31.4165 101.714 31.4165C101.112 31.4165 100.673 31.6322 100.396 32.0635C100.127 32.4948 99.9688 33.1865 99.9199 34.1387ZM115.24 32.1245L114.092 32.0269C113.148 32.0269 112.509 32.4419 112.176 33.272V42H108.709V28.792H111.968L112.066 30.2202C112.611 29.1053 113.364 28.5479 114.324 28.5479C114.715 28.5479 115.032 28.6007 115.276 28.7065L115.24 32.1245ZM121.575 37.1172L123.248 28.792H126.849L123.223 42H119.927L116.29 28.792H119.903L121.575 37.1172ZM132.098 42H128.631V28.792H132.098V42ZM128.472 25.374C128.472 24.8369 128.643 24.3975 128.985 24.0557C129.327 23.7139 129.782 23.543 130.352 23.543C130.922 23.543 131.377 23.7139 131.719 24.0557C132.061 24.3975 132.232 24.8369 132.232 25.374C132.232 25.903 132.061 26.3424 131.719 26.6924C131.386 27.0423 130.93 27.2173 130.352 27.2173C129.774 27.2173 129.314 27.0423 128.973 26.6924C128.639 26.3424 128.472 25.903 128.472 25.374ZM139.544 39.3755C140.545 39.3755 141.054 38.7244 141.07 37.4224H144.317C144.301 38.8628 143.857 40.0265 142.986 40.9136C142.116 41.8006 140.993 42.2441 139.617 42.2441C137.916 42.2441 136.618 41.7152 135.723 40.6572C134.828 39.5993 134.372 38.0409 134.356 35.9819V34.9321C134.356 32.8569 134.795 31.2741 135.674 30.1836C136.561 29.0931 137.868 28.5479 139.593 28.5479C141.049 28.5479 142.197 28.9995 143.035 29.9028C143.873 30.798 144.301 32.0716 144.317 33.7236H141.07C141.062 32.9831 140.94 32.4134 140.704 32.0146C140.468 31.6159 140.077 31.4165 139.532 31.4165C138.93 31.4165 138.498 31.6322 138.238 32.0635C137.977 32.4867 137.839 33.3127 137.823 34.5415V35.8843C137.823 36.9585 137.876 37.7113 137.981 38.1426C138.087 38.5658 138.262 38.8791 138.506 39.0825C138.75 39.2778 139.096 39.3755 139.544 39.3755ZM151.604 42.2441C149.83 42.2441 148.447 41.7152 147.454 40.6572C146.461 39.5993 145.965 38.0856 145.965 36.1162V35.0664C145.965 32.9831 146.421 31.3758 147.332 30.2446C148.243 29.1134 149.55 28.5479 151.25 28.5479C152.911 28.5479 154.16 29.0809 154.998 30.147C155.836 31.2049 156.264 32.7756 156.28 34.8589V36.5557H149.407C149.456 37.5322 149.672 38.2484 150.054 38.7041C150.437 39.1517 151.027 39.3755 151.824 39.3755C152.98 39.3755 153.944 38.9808 154.717 38.1914L156.072 40.2788C155.649 40.8647 155.035 41.3408 154.229 41.707C153.423 42.0651 152.549 42.2441 151.604 42.2441ZM149.432 34.1387H152.886V33.8213C152.87 33.0319 152.74 32.4338 152.496 32.0269C152.251 31.62 151.828 31.4165 151.226 31.4165C150.624 31.4165 150.184 31.6322 149.908 32.0635C149.639 32.4948 149.48 33.1865 149.432 34.1387ZM164.166 42V24.2266H168.865C170.94 24.2266 172.592 24.8857 173.821 26.2041C175.058 27.5225 175.689 29.3291 175.713 31.624V34.5049C175.713 36.8405 175.095 38.6756 173.858 40.0103C172.629 41.3368 170.932 42 168.768 42H164.166ZM167.754 27.2173V39.0215H168.829C170.025 39.0215 170.867 38.7082 171.355 38.0815C171.844 37.4468 172.1 36.3563 172.125 34.8101V31.7217C172.125 30.0615 171.893 28.9059 171.429 28.2549C170.965 27.5957 170.175 27.2498 169.061 27.2173H167.754ZM183.465 42.2441C181.691 42.2441 180.307 41.7152 179.314 40.6572C178.322 39.5993 177.825 38.0856 177.825 36.1162V35.0664C177.825 32.9831 178.281 31.3758 179.192 30.2446C180.104 29.1134 181.41 28.5479 183.111 28.5479C184.771 28.5479 186.02 29.0809 186.858 30.147C187.697 31.2049 188.124 32.7756 188.14 34.8589V36.5557H181.268C181.316 37.5322 181.532 38.2484 181.915 38.7041C182.297 39.1517 182.887 39.3755 183.685 39.3755C184.84 39.3755 185.805 38.9808 186.578 38.1914L187.933 40.2788C187.509 40.8647 186.895 41.3408 186.089 41.707C185.284 42.0651 184.409 42.2441 183.465 42.2441ZM181.292 34.1387H184.747V33.8213C184.73 33.0319 184.6 32.4338 184.356 32.0269C184.112 31.62 183.689 31.4165 183.086 31.4165C182.484 31.4165 182.045 31.6322 181.768 32.0635C181.5 32.4948 181.341 33.1865 181.292 34.1387ZM194.256 37.1172L195.928 28.792H199.529L195.904 42H192.608L188.97 28.792H192.583L194.256 37.1172ZM204.778 42H201.312V28.792H204.778V42ZM201.153 25.374C201.153 24.8369 201.324 24.3975 201.666 24.0557C202.007 23.7139 202.463 23.543 203.033 23.543C203.602 23.543 204.058 23.7139 204.4 24.0557C204.742 24.3975 204.913 24.8369 204.913 25.374C204.913 25.903 204.742 26.3424 204.4 26.6924C204.066 27.0423 203.611 27.2173 203.033 27.2173C202.455 27.2173 201.995 27.0423 201.653 26.6924C201.32 26.3424 201.153 25.903 201.153 25.374ZM212.225 39.3755C213.226 39.3755 213.734 38.7244 213.75 37.4224H216.998C216.981 38.8628 216.538 40.0265 215.667 40.9136C214.796 41.8006 213.673 42.2441 212.298 42.2441C210.597 42.2441 209.299 41.7152 208.404 40.6572C207.509 39.5993 207.053 38.0409 207.037 35.9819V34.9321C207.037 32.8569 207.476 31.2741 208.355 30.1836C209.242 29.0931 210.548 28.5479 212.273 28.5479C213.73 28.5479 214.878 28.9995 215.716 29.9028C216.554 30.798 216.981 32.0716 216.998 33.7236H213.75C213.742 32.9831 213.62 32.4134 213.384 32.0146C213.148 31.6159 212.758 31.4165 212.212 31.4165C211.61 31.4165 211.179 31.6322 210.918 32.0635C210.658 32.4867 210.52 33.3127 210.503 34.5415V35.8843C210.503 36.9585 210.556 37.7113 210.662 38.1426C210.768 38.5658 210.943 38.8791 211.187 39.0825C211.431 39.2778 211.777 39.3755 212.225 39.3755ZM224.285 42.2441C222.511 42.2441 221.128 41.7152 220.135 40.6572C219.142 39.5993 218.646 38.0856 218.646 36.1162V35.0664C218.646 32.9831 219.101 31.3758 220.013 30.2446C220.924 29.1134 222.23 28.5479 223.931 28.5479C225.591 28.5479 226.84 29.0809 227.679 30.147C228.517 31.2049 228.944 32.7756 228.96 34.8589V36.5557H222.088C222.137 37.5322 222.352 38.2484 222.735 38.7041C223.117 39.1517 223.707 39.3755 224.505 39.3755C225.66 39.3755 226.625 38.9808 227.398 38.1914L228.753 40.2788C228.33 40.8647 227.715 41.3408 226.91 41.707C226.104 42.0651 225.229 42.2441 224.285 42.2441ZM222.112 34.1387H225.567V33.8213C225.551 33.0319 225.42 32.4338 225.176 32.0269C224.932 31.62 224.509 31.4165 223.907 31.4165C223.305 31.4165 222.865 31.6322 222.588 32.0635C222.32 32.4948 222.161 33.1865 222.112 34.1387Z" fill="#203C42"/>
<path d="M84.9473 57.9609L86.2363 53.6602H87.7539L85.2344 60.9609C84.8477 62.0273 84.1914 62.5605 83.2656 62.5605C83.0586 62.5605 82.8301 62.5254 82.5801 62.4551V61.3535L82.8496 61.3711C83.209 61.3711 83.4785 61.3047 83.6582 61.1719C83.8418 61.043 83.9863 60.8242 84.0918 60.5156L84.2969 59.9707L82.0703 53.6602H83.6055L84.9473 57.9609ZM92.3418 58.248L94.2168 53.6602H95.998V60H94.5742V55.8047L92.8281 60H91.8613L90.1094 55.7812V60H88.6855V53.6602H90.4785L92.3418 58.248ZM102.971 60H101.547V57.4395H99.0801V60H97.6562V53.6602H99.0801V56.3027H101.547V53.6602H102.971V60ZM106.023 55.6758H107.418C107.938 55.6758 108.391 55.7656 108.777 55.9453C109.164 56.125 109.457 56.377 109.656 56.7012C109.859 57.0254 109.961 57.4023 109.961 57.832C109.961 58.4844 109.73 59.0078 109.27 59.4023C108.809 59.7969 108.195 59.9961 107.43 60H104.6V53.6602H106.023V55.6758ZM112.439 60H111.016V53.6602H112.439V60ZM106.023 56.8184V58.8633H107.412C107.76 58.8633 108.033 58.7773 108.232 58.6055C108.436 58.4297 108.537 58.1816 108.537 57.8613C108.537 57.541 108.438 57.2891 108.238 57.1055C108.043 56.918 107.777 56.8223 107.441 56.8184H106.023ZM116.939 60.1172C116.037 60.1172 115.305 59.834 114.742 59.2676C114.184 58.6973 113.904 57.9395 113.904 56.9941V56.8184C113.904 56.1855 114.025 55.6211 114.268 55.125C114.514 54.625 114.857 54.2363 115.299 53.959C115.74 53.6816 116.232 53.543 116.775 53.543C117.639 53.543 118.305 53.8184 118.773 54.3691C119.246 54.9199 119.482 55.6992 119.482 56.707V57.2812H115.34C115.383 57.8047 115.557 58.2188 115.861 58.5234C116.17 58.8281 116.557 58.9805 117.021 58.9805C117.674 58.9805 118.205 58.7168 118.615 58.1895L119.383 58.9219C119.129 59.3008 118.789 59.5957 118.363 59.8066C117.941 60.0137 117.467 60.1172 116.939 60.1172ZM116.77 54.6855C116.379 54.6855 116.062 54.8223 115.82 55.0957C115.582 55.3691 115.43 55.75 115.363 56.2383H118.076V56.1328C118.045 55.6562 117.918 55.2969 117.695 55.0547C117.473 54.8086 117.164 54.6855 116.77 54.6855ZM128.57 54.791H126.514V60H125.09V54.791H123.057V53.6602H128.57V54.791ZM131.939 60.1172C131.037 60.1172 130.305 59.834 129.742 59.2676C129.184 58.6973 128.904 57.9395 128.904 56.9941V56.8184C128.904 56.1855 129.025 55.6211 129.268 55.125C129.514 54.625 129.857 54.2363 130.299 53.959C130.74 53.6816 131.232 53.543 131.775 53.543C132.639 53.543 133.305 53.8184 133.773 54.3691C134.246 54.9199 134.482 55.6992 134.482 56.707V57.2812H130.34C130.383 57.8047 130.557 58.2188 130.861 58.5234C131.17 58.8281 131.557 58.9805 132.021 58.9805C132.674 58.9805 133.205 58.7168 133.615 58.1895L134.383 58.9219C134.129 59.3008 133.789 59.5957 133.363 59.8066C132.941 60.0137 132.467 60.1172 131.939 60.1172ZM131.77 54.6855C131.379 54.6855 131.062 54.8223 130.82 55.0957C130.582 55.3691 130.43 55.75 130.363 56.2383H133.076V56.1328C133.045 55.6562 132.918 55.2969 132.695 55.0547C132.473 54.8086 132.164 54.6855 131.77 54.6855ZM137.869 55.7461L139.076 53.6602H140.658L138.719 56.7832L140.723 60H139.152L137.887 57.832L136.627 60H135.045L137.049 56.7832L135.115 53.6602H136.686L137.869 55.7461ZM146.998 60H145.574V57.4395H143.107V60H141.684V53.6602H143.107V56.3027H145.574V53.6602H146.998V60ZM148.252 56.7715C148.252 56.1504 148.375 55.5918 148.621 55.0957C148.867 54.5957 149.213 54.2129 149.658 53.9473C150.104 53.6777 150.615 53.543 151.193 53.543C152.049 53.543 152.742 53.8184 153.273 54.3691C153.809 54.9199 154.098 55.6504 154.141 56.5605L154.146 56.8945C154.146 57.5195 154.025 58.0781 153.783 58.5703C153.545 59.0625 153.201 59.4434 152.752 59.7129C152.307 59.9824 151.791 60.1172 151.205 60.1172C150.311 60.1172 149.594 59.8203 149.055 59.2266C148.52 58.6289 148.252 57.834 148.252 56.8418V56.7715ZM149.676 56.8945C149.676 57.5469 149.811 58.0586 150.08 58.4297C150.35 58.7969 150.725 58.9805 151.205 58.9805C151.686 58.9805 152.059 58.793 152.324 58.418C152.594 58.043 152.729 57.4941 152.729 56.7715C152.729 56.1309 152.59 55.623 152.312 55.248C152.039 54.873 151.666 54.6855 151.193 54.6855C150.729 54.6855 150.359 54.8711 150.086 55.2422C149.812 55.6094 149.676 56.1602 149.676 56.8945ZM160.645 53.6602V60H159.221V54.8086H157.428L157.311 57.0176C157.236 58.0801 157.031 58.8438 156.695 59.3086C156.363 59.7695 155.854 60 155.166 60H154.727L154.721 58.8164L155.014 58.7871C155.326 58.7441 155.553 58.5547 155.693 58.2188C155.838 57.8789 155.93 57.2617 155.969 56.3672L156.086 53.6602H160.645ZM161.893 56.7715C161.893 56.1504 162.016 55.5918 162.262 55.0957C162.508 54.5957 162.854 54.2129 163.299 53.9473C163.744 53.6777 164.256 53.543 164.834 53.543C165.689 53.543 166.383 53.8184 166.914 54.3691C167.449 54.9199 167.738 55.6504 167.781 56.5605L167.787 56.8945C167.787 57.5195 167.666 58.0781 167.424 58.5703C167.186 59.0625 166.842 59.4434 166.393 59.7129C165.947 59.9824 165.432 60.1172 164.846 60.1172C163.951 60.1172 163.234 59.8203 162.695 59.2266C162.16 58.6289 161.893 57.834 161.893 56.8418V56.7715ZM163.316 56.8945C163.316 57.5469 163.451 58.0586 163.721 58.4297C163.99 58.7969 164.365 58.9805 164.846 58.9805C165.326 58.9805 165.699 58.793 165.965 58.418C166.234 58.043 166.369 57.4941 166.369 56.7715C166.369 56.1309 166.23 55.623 165.953 55.248C165.68 54.873 165.307 54.6855 164.834 54.6855C164.369 54.6855 164 54.8711 163.727 55.2422C163.453 55.6094 163.316 56.1602 163.316 56.8945ZM173.213 54.8086H170.459V60H169.041V53.6602H173.213V54.8086ZM177.977 53.6602H179.395V60H177.977V55.7695L175.492 60H174.074V53.6602H175.492V57.8906L177.977 53.6602ZM184.867 53.6602H186.285V60H184.867V55.7695L182.383 60H180.965V53.6602H182.383V57.8906L184.867 53.6602Z" fill="#788891"/>
<path d="M46.0668 26.8665C47.1952 26.8665 48.1485 27.5936 48.5073 28.5998H57.4929C57.8517 27.5936 58.805 26.8665 59.9334 26.8665C61.3669 26.8665 62.5334 28.033 62.5334 29.4664C62.5334 30.8999 61.3669 32.0664 59.9334 32.0664C58.805 32.0664 57.8517 31.3392 57.4929 30.3331H48.5064C48.1476 31.3392 47.1943 32.0664 46.0659 32.0664C44.6324 32.0664 43.4659 30.8999 43.4659 29.4664C43.4659 28.033 44.6333 26.8665 46.0668 26.8665ZM59.9334 30.3331C60.411 30.3331 60.8001 29.9448 60.8001 29.4664C60.8001 28.988 60.411 28.5998 59.9334 28.5998C59.4559 28.5998 59.0668 28.988 59.0668 29.4664C59.0668 29.9448 59.4559 30.3331 59.9334 30.3331ZM46.0668 30.3331C46.5443 30.3331 46.9334 29.9448 46.9334 29.4664C46.9334 28.988 46.5443 28.5998 46.0668 28.5998C45.5892 28.5998 45.2001 28.988 45.2001 29.4664C45.2001 29.9448 45.5892 30.3331 46.0668 30.3331Z" fill="#00B2FF"/>
<path d="M39.1333 32.2259V26.8665C39.1333 26.636 39.2243 26.4158 39.3872 26.2538L42.8539 22.7872C43.0159 22.6242 43.2369 22.5332 43.4666 22.5332H46.2261C46.5849 21.527 47.5382 20.7999 48.6666 20.7999C50.1001 20.7999 51.2666 21.9664 51.2666 23.3999C51.2666 24.8333 50.1001 25.9998 48.6666 25.9998C47.5382 25.9998 46.5849 25.2727 46.2261 24.2665H43.8254L40.8666 27.2253V32.2259C41.8728 32.5847 42.5999 33.538 42.5999 34.6664C42.5999 36.0998 41.4334 37.2663 39.9999 37.2663C38.5665 37.2663 37.3999 36.0998 37.3999 34.6664C37.3999 33.538 38.1271 32.5847 39.1333 32.2259ZM48.6666 24.2665C49.1441 24.2665 49.5333 23.8783 49.5333 23.3999C49.5333 22.9215 49.1441 22.5332 48.6666 22.5332C48.1891 22.5332 47.7999 22.9215 47.7999 23.3999C47.7999 23.8783 48.1891 24.2665 48.6666 24.2665ZM39.9999 35.533C40.4775 35.533 40.8666 35.1448 40.8666 34.6664C40.8666 34.188 40.4775 33.7997 39.9999 33.7997C39.5224 33.7997 39.1333 34.188 39.1333 34.6664C39.1333 35.1448 39.5224 35.533 39.9999 35.533Z" fill="#00B2FF"/>
<path d="M23.5333 35.533C23.9337 35.533 24.3081 35.6309 24.647 35.7938L26.1333 34.3075V25.9998C26.1333 25.7693 26.2243 25.5491 26.3873 25.3871L35.0609 16.7136C34.8979 16.3747 34.8 16.0003 34.8 15.6C34.8 14.1665 35.9665 13 37.4 13C38.8335 13 40 14.1665 40 15.6C40 17.0334 38.8335 18.1999 37.4 18.1999C36.9996 18.1999 36.6252 18.102 36.2863 17.9391L27.8667 26.3586V34.6663C27.8667 34.8968 27.7757 35.117 27.6127 35.279L25.8725 37.0193C26.0354 37.3581 26.1333 37.7325 26.1333 38.1329C26.1333 39.5664 24.9668 40.7329 23.5333 40.7329C22.0999 40.7329 20.9333 39.5664 20.9333 38.1329C20.9333 36.6995 22.0999 35.533 23.5333 35.533ZM37.4 16.4666C37.8775 16.4666 38.2667 16.0783 38.2667 15.6C38.2667 15.1216 37.8775 14.7333 37.4 14.7333C36.9225 14.7333 36.5333 15.1216 36.5333 15.6C36.5333 16.0783 36.9225 16.4666 37.4 16.4666ZM23.5333 38.9996C24.0109 38.9996 24.4 38.6113 24.4 38.1329C24.4 37.6545 24.0109 37.2663 23.5333 37.2663C23.0558 37.2663 22.6667 37.6545 22.6667 38.1329C22.6667 38.6113 23.0558 38.9996 23.5333 38.9996Z" fill="#00B2FF"/>
<path d="M15.7333 25.2926V21.6665C15.7333 21.436 15.8243 21.2159 15.9872 21.0538L22.0539 14.9872C22.216 14.8243 22.437 14.7333 22.6666 14.7333H27.1594C27.5182 13.7271 28.4716 13 29.6 13C31.0334 13 32.2 14.1665 32.2 15.6C32.2 17.0334 31.0334 18.1999 29.6 18.1999C28.4716 18.1999 27.5182 17.4728 27.1594 16.4666H23.0254L17.4666 22.0253V25.2926C18.4728 25.6514 19.2 26.6047 19.2 27.7331C19.2 29.1665 18.0334 30.333 16.6 30.333C15.1665 30.333 14 29.1665 14 27.7331C14 26.6047 14.7271 25.6514 15.7333 25.2926ZM29.6 16.4666C30.0775 16.4666 30.4666 16.0783 30.4666 15.6C30.4666 15.1216 30.0775 14.7333 29.6 14.7333C29.1224 14.7333 28.7333 15.1216 28.7333 15.6C28.7333 16.0783 29.1224 16.4666 29.6 16.4666ZM16.6 28.5997C17.0775 28.5997 17.4666 28.2115 17.4666 27.7331C17.4666 27.2547 17.0775 26.8664 16.6 26.8664C16.1224 26.8664 15.7333 27.2547 15.7333 27.7331C15.7333 28.2115 16.1224 28.5997 16.6 28.5997Z" fill="#00B2FF"/>
<path d="M27.8658 59.9595V47.5066C26.8604 47.1478 26.1333 46.1945 26.1333 45.0661C26.1333 43.6327 27.2998 42.4661 28.7333 42.4661C29.8617 42.4661 30.815 43.1933 31.1738 44.1995H40.1594C40.5182 43.1933 41.4716 42.4661 42.6 42.4661C43.7284 42.4661 44.6817 43.1933 45.0405 44.1995H50.0412L53.2608 40.9798C53.0979 40.641 53 40.2666 53 39.8662C53 38.4327 54.1665 37.2662 55.6 37.2662C57.0334 37.2662 58.2 38.4327 58.2 39.8662C58.2 41.2996 57.0334 42.4661 55.6 42.4661C55.1996 42.4661 54.8252 42.3682 54.4863 42.2053L51.0127 45.6788C50.8506 45.8418 50.6296 45.9328 50.4 45.9328H45.0405C44.6817 46.9389 43.7284 47.6661 42.6 47.6661C41.4716 47.6661 40.5182 46.9389 40.1594 45.9328H31.173C30.9112 46.6668 30.3332 47.2449 29.5991 47.5066V59.9595C30.6053 60.3183 31.3324 61.2716 31.3324 62.4C31.3324 63.8335 30.1659 65 28.7324 65C27.299 65 26.1324 63.8335 26.1324 62.4C26.1324 61.2716 26.8596 60.3183 27.8658 59.9595ZM55.6 40.7328C56.0775 40.7328 56.4666 40.3446 56.4666 39.8662C56.4666 39.3878 56.0775 38.9995 55.6 38.9995C55.1224 38.9995 54.7333 39.3878 54.7333 39.8662C54.7333 40.3446 55.1224 40.7328 55.6 40.7328ZM42.6 45.9328C43.0775 45.9328 43.4666 45.5445 43.4666 45.0661C43.4666 44.5877 43.0775 44.1995 42.6 44.1995C42.1224 44.1995 41.7333 44.5877 41.7333 45.0661C41.7333 45.5445 42.1224 45.9328 42.6 45.9328ZM28.7333 63.2658C29.2108 63.2658 29.6 62.8775 29.6 62.3991C29.6 61.9208 29.2108 61.5325 28.7333 61.5325C28.2558 61.5325 27.8666 61.9208 27.8666 62.3991C27.8666 62.8775 28.2558 63.2658 28.7333 63.2658ZM28.7333 45.9328C29.2108 45.9328 29.6 45.5445 29.6 45.0661C29.6 44.5877 29.2108 44.1995 28.7333 44.1995C28.2558 44.1995 27.8666 44.5877 27.8666 45.0661C27.8666 45.5445 28.2558 45.9328 28.7333 45.9328Z" fill="#00B2FF"/>
<path d="M32.2 30.4925V27.7331C32.2 27.5026 32.291 27.2824 32.4539 27.1204L42.8609 16.7136C42.6979 16.3747 42.6 16.0003 42.6 15.6C42.6 14.1665 43.7665 13 45.2 13C46.3284 13 47.2817 13.7271 47.6405 14.7333H51.2667C51.7451 14.7333 52.1333 15.1207 52.1333 15.6V17.8411L55.353 21.0607C55.6919 20.8978 56.0663 20.7999 56.4667 20.7999C57.9001 20.7999 59.0667 21.9664 59.0667 23.3998C59.0667 24.8333 57.9001 25.9998 56.4667 25.9998C55.0332 25.9998 53.8667 24.8333 53.8667 23.3998C53.8667 22.9994 53.9646 22.625 54.1275 22.2862L50.6539 18.8126C50.491 18.6506 50.4 18.4304 50.4 18.1999V16.4666H47.6405C47.2817 17.4728 46.3284 18.1999 45.2 18.1999C44.7996 18.1999 44.4252 18.102 44.0863 17.9391L33.9333 28.0919V30.4925C34.9395 30.8513 35.6667 31.8046 35.6667 32.933C35.6667 34.3664 34.5001 35.533 33.0667 35.533C31.6332 35.533 30.4667 34.3664 30.4667 32.933C30.4667 31.8046 31.1938 30.8513 32.2 30.4925ZM56.4667 24.2665C56.9442 24.2665 57.3333 23.8782 57.3333 23.3998C57.3333 22.9214 56.9442 22.5332 56.4667 22.5332C55.9891 22.5332 55.6 22.9214 55.6 23.3998C55.6 23.8782 55.9891 24.2665 56.4667 24.2665ZM45.2 16.4666C45.6775 16.4666 46.0667 16.0783 46.0667 15.6C46.0667 15.1216 45.6775 14.7333 45.2 14.7333C44.7225 14.7333 44.3333 15.1216 44.3333 15.6C44.3333 16.0783 44.7225 16.4666 45.2 16.4666ZM33.0667 33.7997C33.5442 33.7997 33.9333 33.4114 33.9333 32.933C33.9333 32.4546 33.5442 32.0663 33.0667 32.0663C32.5891 32.0663 32.2 32.4546 32.2 32.933C32.2 33.4114 32.5891 33.7997 33.0667 33.7997Z" fill="#00B2FF"/>
<path d="M34.8 37.2663C35.9284 37.2663 36.8817 37.9934 37.2405 38.9996H47.4412L52.3873 34.0536C52.5493 33.8906 52.7703 33.7997 53 33.7997H62.1745L64.2667 31.7076V24.6253L57.5803 17.9391C57.2415 18.102 56.8671 18.1999 56.4667 18.1999C55.0332 18.1999 53.8667 17.0334 53.8667 15.6C53.8667 14.1665 55.0332 13 56.4667 13C57.9001 13 59.0667 14.1665 59.0667 15.6C59.0667 16.0003 58.9687 16.3747 58.8058 16.7136L65.7461 23.6538C65.909 23.8158 66 24.0359 66 24.2665V32.0663C66 32.2969 65.909 32.517 65.7461 32.6791L63.1461 35.279C62.984 35.442 62.763 35.533 62.5333 35.533H53.3588L48.4127 40.4789C48.2507 40.6419 48.0297 40.7329 47.8 40.7329H37.2405C36.8817 41.7391 35.9284 42.4662 34.8 42.4662C33.3665 42.4662 32.2 41.2997 32.2 39.8662C32.2 38.4328 33.3665 37.2663 34.8 37.2663ZM56.4667 14.7333C55.9891 14.7333 55.6 15.1216 55.6 15.6C55.6 16.0783 55.9891 16.4666 56.4667 16.4666C56.9442 16.4666 57.3333 16.0783 57.3333 15.6C57.3333 15.1216 56.9442 14.7333 56.4667 14.7333ZM34.8 40.7329C35.2775 40.7329 35.6667 40.3446 35.6667 39.8662C35.6667 39.3878 35.2775 38.9996 34.8 38.9996C34.3225 38.9996 33.9333 39.3878 33.9333 39.8662C33.9333 40.3446 34.3225 40.7329 34.8 40.7329Z" fill="#00B2FF"/>
<path d="M16.6 33.7997C17.0004 33.7997 17.3748 33.8976 17.7136 34.0606L20.9333 30.841V25.8404C19.9271 25.4816 19.2 24.5283 19.2 23.3999C19.2 21.9664 20.3665 20.7999 21.8 20.7999C23.2334 20.7999 24.4 21.9664 24.4 23.3999C24.4 24.5283 23.6728 25.4816 22.6666 25.8404V31.1998C22.6666 31.4303 22.5756 31.6504 22.4127 31.8125L18.9391 35.286C19.102 35.6249 19.2 35.9993 19.2 36.3997C19.2 37.528 18.4728 38.4814 17.4666 38.8402V39.5075L24.146 46.1868C24.309 46.3488 24.4 46.569 24.4 46.7995V47.8256C25.4062 48.1844 26.1333 49.1377 26.1333 50.2661C26.1333 51.3945 25.4062 52.3478 24.4 52.7066V54.7597C25.4062 55.1185 26.1333 56.0718 26.1333 57.2002C26.1333 58.6336 24.9668 59.8001 23.5333 59.8001C22.0998 59.8001 20.9333 58.6336 20.9333 57.2002C20.9333 56.0718 21.6604 55.1185 22.6666 54.7597V52.7066C21.6604 52.3478 20.9333 51.3945 20.9333 50.2661C20.9333 49.1377 21.6604 48.1844 22.6666 47.8256V47.1583L15.9872 40.479C15.8243 40.3169 15.7333 40.0968 15.7333 39.8663V38.8402C14.7271 38.4814 14 37.528 14 36.3997C14 34.9662 15.1665 33.7997 16.6 33.7997ZM21.8 24.2665C22.2775 24.2665 22.6666 23.8783 22.6666 23.3999C22.6666 22.9215 22.2775 22.5332 21.8 22.5332C21.3224 22.5332 20.9333 22.9215 20.9333 23.3999C20.9333 23.8783 21.3224 24.2665 21.8 24.2665ZM23.5333 58.066C24.0108 58.066 24.4 57.6777 24.4 57.1993C24.4 56.7209 24.0108 56.3327 23.5333 56.3327C23.0558 56.3327 22.6666 56.7209 22.6666 57.1993C22.6666 57.6777 23.0558 58.066 23.5333 58.066ZM23.5333 51.1328C24.0108 51.1328 24.4 50.7445 24.4 50.2661C24.4 49.7877 24.0108 49.3995 23.5333 49.3995C23.0558 49.3995 22.6666 49.7877 22.6666 50.2661C22.6666 50.7445 23.0558 51.1328 23.5333 51.1328ZM16.6 37.2663C17.0775 37.2663 17.4666 36.8781 17.4666 36.3997C17.4666 35.9213 17.0775 35.533 16.6 35.533C16.1224 35.533 15.7333 35.9213 15.7333 36.3997C15.7333 36.8781 16.1224 37.2663 16.6 37.2663Z" fill="#00B2FF"/>
</svg>
